<?xml version="1.0" encoding="UTF-8" standalone="no"?>
<!-- Created with Inkscape (http://www.inkscape.org/) -->

<svg xmlns:dc="http://purl.org/dc/elements/1.1/"
   xmlns:cc="http://creativecommons.org/ns#"
   xmlns:rdf="http://www.w3.org/1999/02/22-rdf-syntax-ns#"
   xmlns:svg="http://www.w3.org/2000/svg"
   xmlns="http://www.w3.org/2000/svg"
   xmlns:sodipodi="http://sodipodi.sourceforge.net/DTD/sodipodi-0.dtd"
   xmlns:inkscape="http://www.inkscape.org/namespaces/inkscape" width="210" height="36.2286" viewBox="0 0 55.562495 9.5854835" version="1.1" id="svg8" sodipodi:docname="logo.svg" inkscape:version="0.92.2 (5c3e80d, 2017-08-06)">
   <defs id="defs2">
      <clipPath id="clipPath3715" clipPathUnits="userSpaceOnUse">
         <path inkscape:connector-curvature="0" id="path3713" d="M 0,595.28 H 841.89 V 0 H 0 Z" />
      </clipPath>
      <clipPath id="clipPath3735" clipPathUnits="userSpaceOnUse">
         <path inkscape:connector-curvature="0" id="path3733" d="M 0,595.28 H 841.89 V 0 H 0 Z" />
      </clipPath>
   </defs>
   <sodipodi:namedview id="base" pagecolor="#ffffff" bordercolor="#666666" borderopacity="1.0" inkscape:pageopacity="0.0" inkscape:pageshadow="2" inkscape:zoom="0.35" inkscape:cx="400.0017" inkscape:cy="676.28562" inkscape:document-units="px" inkscape:current-layer="layer1" showgrid="false" inkscape:window-width="1366" inkscape:window-height="705" inkscape:window-x="-8" inkscape:window-y="272" inkscape:window-maximized="1" fit-margin-left="0" fit-margin-top="2" fit-margin-right="0" fit-margin-bottom="2" units="px" />
   <metadata id="metadata5">
      <rdf:RDF>
         <cc:Work rdf:about="">
            <dc:format>image/svg+xml</dc:format>
            <dc:type rdf:resource="http://purl.org/dc/dcmitype/StillImage" />
            <dc:title></dc:title>
         </cc:Work>
      </rdf:RDF>
   </metadata>
   <g inkscape:label="Layer 1" inkscape:groupmode="layer" id="layer1" transform="translate(4.5065907e-4,-287.94364)">
      <g transform="matrix(0.21803913,0,0,-0.21803851,-109.29805,397.01873)" inkscape:label="Icona_portAPPorta" id="g3707">
         <g id="g3709">
            <g clip-path="url(#clipPath3715)" id="g3711">
               <g transform="translate(255.9412,198.4392)" id="g3717" />
               <g transform="translate(162.5256,302.8874)" id="g3721" />
               <g transform="translate(254.8238,273.1659)" id="g3725" />
            </g>
         </g>
         <g id="g3729" transform="translate(32.142858,201.42858)">
            <g clip-path="url(#clipPath3735)" id="g3731">
               <g transform="translate(476.3833,269.0595)" id="g3737">
                  <path inkscape:connector-curvature="0" id="path3739" style="fill:#eeeeee;fill-opacity:1;fill-rule:nonzero;stroke:none" d="M 0,0 C 3.456,0 4.891,1.437 4.891,4.277 4.891,7.149 3.421,8.552 0,8.552 H -3.592 V 0 Z m -3.592,-11.459 h -3.659 v 23.261 h 7.388 c 5.439,0 8.552,-3.011 8.552,-7.525 0,-4.619 -3.147,-7.526 -8.552,-7.526 h -3.729 z" />
               </g>
               <g transform="translate(507.9579,269.2301)" id="g3741">
                  <path inkscape:connector-curvature="0" id="path3743" style="fill:#eeeeee;fill-opacity:1;fill-rule:nonzero;stroke:none" d="m 0,0 c 0,4.926 -3.387,8.621 -8.21,8.621 -4.822,0 -8.209,-3.695 -8.209,-8.621 0,-4.926 3.387,-8.619 8.209,-8.619 C -3.387,-8.619 0,-4.926 0,0 m -20.216,0 c 0,6.876 5.336,11.939 12.006,11.939 6.671,0 12.007,-5.063 12.007,-11.939 0,-6.874 -5.336,-11.938 -12.007,-11.938 -6.67,0 -12.006,5.064 -12.006,11.938" />
               </g>
               <g transform="translate(523.0114,269.3332)" id="g3745">
                  <path inkscape:connector-curvature="0" id="path3747" style="fill:#eeeeee;fill-opacity:1;fill-rule:nonzero;stroke:none" d="M 0,0 C 3.454,0 4.891,1.368 4.891,4.139 4.891,6.944 3.42,8.278 0,8.278 H -3.661 V 0 Z M -3.661,-11.733 H -7.32 v 23.261 h 7.456 c 5.44,0 8.552,-2.976 8.552,-7.389 0,-3.249 -1.607,-5.576 -4.514,-6.636 l 5.609,-9.236 H 5.781 L 0.582,-3.146 H 0.136 -3.661 Z" />
               </g>
               <g transform="translate(540.6653,277.6116)" id="g3749">
                  <path inkscape:connector-curvature="0" id="path3751" style="fill:#eeeeee;fill-opacity:1;fill-rule:nonzero;stroke:none" d="M 0,0 H -6.91 V 3.249 H 10.569 V 0 H 3.659 V -20.011 H 0 Z" />
               </g>
               <g transform="translate(562.8555,268.399)" id="g3753">
                  <path inkscape:connector-curvature="0" id="path3755" style="fill:#eeeeee;fill-opacity:1;fill-rule:nonzero;stroke:none" d="M 0,0 H 9.676 L 4.886,11.63 Z M 11.581,-4.592 H -1.905 l -2.591,-6.207 H -9.773 L 4.79,23.113 h 0.292 l 14.611,-33.912 h -5.522 z" />
               </g>
               <g transform="translate(597.5549,273.9701)" id="g3757">
                  <path inkscape:connector-curvature="0" id="path3759" style="fill:#eeeeee;fill-opacity:1;fill-rule:nonzero;stroke:none" d="m 0,0 c 4.935,0 6.988,2.052 6.988,6.108 0,4.105 -2.102,6.108 -6.988,6.108 H -5.131 V 0 Z m -5.131,-16.37 h -5.228 V 16.858 H 0.195 c 7.769,0 12.216,-4.3 12.216,-10.75 0,-6.597 -4.495,-10.75 -12.216,-10.75 h -5.326 z" />
               </g>
               <g transform="translate(625.7527,273.9701)" id="g3761">
                  <path inkscape:connector-curvature="0" id="path3763" style="fill:#eeeeee;fill-opacity:1;fill-rule:nonzero;stroke:none" d="m 0,0 c 4.935,0 6.988,2.052 6.988,6.108 0,4.105 -2.102,6.108 -6.988,6.108 H -5.131 V 0 Z m -5.131,-16.37 h -5.228 V 16.858 H 0.195 c 7.769,0 12.216,-4.3 12.216,-10.75 0,-6.597 -4.495,-10.75 -12.216,-10.75 h -5.326 z" />
               </g>
               <g transform="translate(661.5951,269.2301)" id="g3765">
                  <path inkscape:connector-curvature="0" id="path3767" style="fill:#eeeeee;fill-opacity:1;fill-rule:nonzero;stroke:none" d="m 0,0 c 0,4.926 -3.387,8.621 -8.21,8.621 -4.822,0 -8.209,-3.695 -8.209,-8.621 0,-4.926 3.387,-8.619 8.209,-8.619 C -3.387,-8.619 0,-4.926 0,0 m -20.216,0 c 0,6.876 5.336,11.939 12.006,11.939 6.671,0 12.007,-5.063 12.007,-11.939 0,-6.874 -5.336,-11.938 -12.007,-11.938 -6.67,0 -12.006,5.064 -12.006,11.938" />
               </g>
               <g transform="translate(676.6486,269.3332)" id="g3769">
                  <path inkscape:connector-curvature="0" id="path3771" style="fill:#eeeeee;fill-opacity:1;fill-rule:nonzero;stroke:none" d="M 0,0 C 3.454,0 4.891,1.368 4.891,4.139 4.891,6.944 3.421,8.278 0,8.278 H -3.661 V 0 Z M -3.661,-11.733 H -7.32 v 23.261 h 7.457 c 5.439,0 8.551,-2.976 8.551,-7.389 0,-3.249 -1.607,-5.576 -4.514,-6.636 l 5.609,-9.236 H 5.781 L 0.582,-3.146 H 0.137 -3.661 Z" />
               </g>
               <g transform="translate(694.3013,277.6116)" id="g3773">
                  <path inkscape:connector-curvature="0" id="path3775" style="fill:#eeeeee;fill-opacity:1;fill-rule:nonzero;stroke:none" d="M 0,0 H -6.91 V 3.249 H 10.569 V 0 H 3.659 V -20.011 H 0 Z" />
               </g>
               <g transform="translate(710.1744,265.1597)" id="g3777">
                  <path inkscape:connector-curvature="0" id="path3779" style="fill:#eeeeee;fill-opacity:1;fill-rule:nonzero;stroke:none" d="M 0,0 H 6.774 L 3.421,8.142 Z M 8.108,-3.215 H -1.334 L -3.146,-7.559 H -6.841 L 3.353,16.18 H 3.558 L 13.786,-7.559 H 9.92 Z" />
               </g>
            </g>
         </g>
      </g>
   </g>
</svg>
